<svg width="115" height="37" viewBox="0 0 115 37" fill="none" xmlns="http://www.w3.org/2000/svg">
<path d="M7.54561 8.16V20.6016H13.4208V26.1888H7.54561V35.424H1.04538e-05V0.921601H16.4544V8.16H7.54561ZM28.5519 29.0304C32.9871 29.0304 32.5839 21.6768 32.5839 18.7584V0.921601H40.1295V20.4864C40.1295 28.1856 37.6719 36.3456 28.5519 36.3456C19.2975 36.3456 16.9743 28.3008 16.9743 20.4864V0.921601H24.5199V18.7584C24.5199 21.5424 24.2703 29.0304 28.5519 29.0304ZM56.0442 25.6896L58.8858 0.921601H70.3098V35.4048H62.7642V8.16H62.6874L59.577 35.4048H52.4538L49.3434 8.16H49.2666V35.4048H41.721V0.921601H53.145L55.9866 25.6896H56.0442ZM79.6521 26.1888V29.952H88.5801L88.5417 35.424H72.1065V0.921601H88.5417V8.16H79.6521V20.6016H85.5081V26.1888H79.6521ZM105.757 18.4128C106.102 17.2608 106.064 15.8208 106.064 14.6496C106.064 11.8848 105.104 8.1792 101.686 8.1792C98.1726 8.1792 97.2702 11.7888 97.2702 14.6496C97.2702 23.04 105.872 19.7376 110.691 22.5408C112.88 23.808 114.301 25.92 114.301 28.4736C114.301 34.9248 106.697 36.3456 101.667 36.3456C96.1374 36.3456 90.915 34.8096 89.1486 29.0304L96.8862 26.2272C97.5582 28.512 99.1134 29.952 101.629 29.952C102.8 29.952 106.064 29.8944 106.064 28.1472C106.064 26.3424 102.838 26.2464 101.629 26.1888C93.4302 25.7472 89.0334 21.4272 89.0334 13.0944C89.0334 5.1264 93.5262 1.18637e-06 101.648 1.18637e-06C109.731 1.18637e-06 114.301 5.1648 114.301 13.0944C114.301 14.8608 114.32 16.6464 114.147 18.4128H105.757Z" fill="url(#paint0_linear_105_2)"/>
<defs>
<linearGradient id="paint0_linear_105_2" x1="95.9301" y1="-1.45599" x2="56.7207" y2="39.5437" gradientUnits="userSpaceOnUse">
<stop stop-color="#FF611D"/>
<stop offset="1" stop-color="#FEA680"/>
</linearGradient>
</defs>
</svg>
