<svg width="25" height="25" viewBox="0 0 25 25" fill="none" xmlns="http://www.w3.org/2000/svg">
<path d="M12.0396 22.0727C6.49839 22.0727 2.00659 17.5809 2.00659 12.0397C2.00659 6.49841 6.49839 2.00661 12.0396 2.00661C17.5809 2.00661 22.0727 6.49841 22.0727 12.0397C22.0727 17.5809 17.5809 22.0727 12.0396 22.0727ZM12.0396 20.0661C14.1684 20.0661 16.21 19.2205 17.7152 17.7152C19.2205 16.21 20.0661 14.1684 20.0661 12.0397C20.0661 9.91092 19.2205 7.86936 17.7152 6.36411C16.21 4.85886 14.1684 4.01322 12.0396 4.01322C9.9109 4.01322 7.86935 4.85886 6.3641 6.36411C4.85884 7.86936 4.0132 9.91092 4.0132 12.0397C4.0132 14.1684 4.85884 16.21 6.3641 17.7152C7.86935 19.2205 9.9109 20.0661 12.0396 20.0661ZM11.0363 15.0496H13.043V17.0562H11.0363V15.0496ZM13.043 13.3991V14.0463H11.0363V12.5413C11.0363 12.2752 11.142 12.02 11.3302 11.8319C11.5184 11.6437 11.7736 11.538 12.0396 11.538C12.3247 11.538 12.6038 11.457 12.8446 11.3046C13.0854 11.1521 13.278 10.9344 13.3999 10.6768C13.5218 10.4191 13.5681 10.1322 13.5333 9.84929C13.4985 9.56641 13.384 9.29922 13.2033 9.07882C13.0226 8.85842 12.783 8.69387 12.5124 8.60432C12.2418 8.51476 11.9514 8.50388 11.6749 8.57295C11.3983 8.64201 11.1471 8.78818 10.9504 8.99445C10.7537 9.20071 10.6197 9.45859 10.5638 9.73808L8.5953 9.34378C8.71734 8.73386 8.99914 8.16728 9.41191 7.70196C9.82468 7.23664 10.3536 6.88928 10.9446 6.69538C11.5356 6.50147 12.1676 6.46799 12.7758 6.59835C13.384 6.72871 13.9466 7.01823 14.4063 7.43733C14.8659 7.85642 15.206 8.39005 15.3918 8.98366C15.5776 9.57727 15.6025 10.2096 15.4638 10.8159C15.3251 11.4223 15.028 11.981 14.6026 12.4348C14.1773 12.8887 13.6391 13.2215 13.043 13.3991Z" fill="#3C3A45"/>
</svg>
