<svg width="25" height="25" viewBox="0 0 25 25" fill="none" xmlns="http://www.w3.org/2000/svg">
<path d="M12.0398 11.0364V16.0529M12.0398 21.0694C10.854 21.0694 9.67977 20.8359 8.58423 20.3821C7.48869 19.9283 6.49325 19.2632 5.65476 18.4247C4.81627 17.5862 4.15115 16.5907 3.69736 15.4952C3.24357 14.3997 3.01001 13.2255 3.01001 12.0397C3.01001 10.8539 3.24357 9.67967 3.69736 8.58413C4.15115 7.48859 4.81627 6.49316 5.65476 5.65467C6.49325 4.81618 7.48869 4.15105 8.58423 3.69727C9.67977 3.24348 10.854 3.00992 12.0398 3.00992C14.4346 3.00992 16.7314 3.96126 18.4248 5.65467C20.1182 7.34808 21.0695 9.64483 21.0695 12.0397C21.0695 14.4345 20.1182 16.7313 18.4248 18.4247C16.7314 20.1181 14.4346 21.0694 12.0398 21.0694ZM12.0899 8.02645V8.12678H11.9896V8.02645H12.0899Z" stroke="#3C3A45" stroke-width="2" stroke-linecap="round" stroke-linejoin="round"/>
</svg>
