<svg width="24" height="24" viewBox="0 0 24 24" fill="none" xmlns="http://www.w3.org/2000/svg">
<path d="M4.99996 20.9995C4.44997 20.9995 3.97931 20.8039 3.58799 20.4126C3.19666 20.0212 3.00067 19.5502 3 18.9996V4.9999C3 4.44991 3.196 3.97925 3.58799 3.58793C3.97998 3.1966 4.45063 3.00061 4.99996 2.99994H10.9998C11.2832 2.99994 11.5208 3.09594 11.7128 3.28793C11.9048 3.47993 12.0005 3.71726 11.9998 3.99992C11.9991 4.28258 11.9031 4.52024 11.7118 4.7129C11.5205 4.90556 11.2832 5.00123 10.9998 4.9999H4.99996V18.9996H10.9998C11.2832 18.9996 11.5208 19.0956 11.7128 19.2876C11.9048 19.4796 12.0005 19.7169 11.9998 19.9996C11.9991 20.2822 11.9031 20.5199 11.7118 20.7125C11.5205 20.9052 11.2832 21.0009 10.9998 20.9995H4.99996ZM17.1747 12.9997H9.99985C9.71652 12.9997 9.47919 12.9037 9.28786 12.7117C9.09653 12.5197 9.00054 12.2824 8.99987 11.9997C8.9992 11.7171 9.0952 11.4798 9.28786 11.2878C9.48053 11.0958 9.71785 10.9998 9.99985 10.9998H17.1747L15.2997 9.1248C15.1164 8.94148 15.0247 8.71648 15.0247 8.44982C15.0247 8.18316 15.1164 7.94983 15.2997 7.74984C15.4831 7.54984 15.7164 7.44551 15.9997 7.43684C16.283 7.42817 16.5247 7.52417 16.7247 7.72484L20.2996 11.2998C20.4996 11.4998 20.5996 11.7331 20.5996 11.9997C20.5996 12.2664 20.4996 12.4997 20.2996 12.6997L16.7247 16.2746C16.5247 16.4746 16.2874 16.5706 16.0127 16.5626C15.7381 16.5546 15.5004 16.4503 15.2997 16.2496C15.1164 16.0497 15.0291 15.8123 15.0377 15.5377C15.0464 15.263 15.1421 15.0337 15.3247 14.8497L17.1747 12.9997Z" fill="#FF5555"/>
</svg>
