<svg xmlns="http://www.w3.org/2000/svg" shape-rendering="geometricPrecision" text-rendering="geometricPrecision" image-rendering="optimizeQuality" fill-rule="evenodd" clip-rule="evenodd" viewBox="0 0 512 265.789"><path fill="#427D2A" d="M0 0h512v265.789H0z"/><path fill="#87CC71" d="M427.351 41.012c-.271 19.771 17.153 37.655 37.661 37.901v105.161c-21.603-.271-39.483 17.153-39.729 40.706H84.649c.271-21.603-17.156-39.487-37.661-39.733V79.886c21.685.246 39.58-17.167 39.826-38.874h340.537z"/><path fill="#427D2A" d="M221.033 51.958h69.935c44.517 0 80.938 36.421 80.938 80.942 0 44.517-36.424 80.934-80.938 80.934h-69.935c-44.514 0-80.938-36.417-80.938-80.934 0-44.521 36.42-80.942 80.938-80.942z"/><path fill="#fff" d="M206.35 111.738h6.616v-20.11h25.533c8.01 0 14.217 2.081 18.585 6.244 3.599 3.431 5.722 8.059 6.357 13.866h9.215c.32 0 .579.276.579.588v9.015a.6.6 0 01-.579.589h-9.533c-1.282 7.245-4.937 12.523-10.964 15.844l13.883 32.373v.762h-17.209l-11.913-28.88h-7.954v28.88h-16V121.93h-6.616a.592.592 0 01-.578-.589v-9.015c0-.325.261-.588.578-.588zm87.599 46.436c0-1.083-.519-2.075-1.541-2.975-1.037-.914-3.325-2.135-6.864-3.692-5.217-2.119-8.802-4.301-10.753-6.574-1.954-2.258-2.929-5.08-2.929-8.45 0-4.226 1.54-7.719 4.591-10.48s7.093-4.134 12.127-4.134c5.308 0 9.549 1.373 12.738 4.119 3.187 2.73 4.788 6.421 4.788 11.028h-12.644c0-3.935-1.648-5.903-4.929-5.903-1.342 0-2.44.411-3.309 1.25-.855.839-1.282 2-1.282 3.494 0 1.069.473 2.014 1.419 2.837.961.825 3.204 1.998 6.757 3.509 5.156 1.907 8.787 4.043 10.922 6.376 2.137 2.334 3.189 5.37 3.189 9.092 0 4.331-1.617 7.794-4.867 10.419-3.249 2.623-7.504 3.935-12.782 3.935-3.539 0-6.666-.686-9.381-2.074-2.716-1.389-4.837-3.326-6.377-5.798-1.525-2.471-2.288-5.14-2.288-7.993h12.02c.061 2.197.565 3.86 1.541 4.958.962 1.113 2.547 1.663 4.76 1.663 3.386 0 5.094-1.541 5.094-4.607zm-64.983-46.436h18.099c-1.16-4.486-4.072-6.729-8.733-6.729h-9.366v6.729zm18.021 10.192h-18.021v6.718h9.088c3.197 0 5.593-1.059 7.192-3.178.762-1.019 1.343-2.199 1.741-3.54z"/></svg>