<svg width="28" height="28" viewBox="0 0 28 28" fill="none" xmlns="http://www.w3.org/2000/svg">
<circle cx="14" cy="14" r="14" fill="#3C3A45"/>
<path d="M13.1667 14.8333H9.00002C8.76391 14.8333 8.56613 14.7533 8.40669 14.5933C8.24725 14.4333 8.16725 14.2355 8.16669 14C8.16613 13.7644 8.24613 13.5667 8.40669 13.4067C8.56725 13.2467 8.76502 13.1667 9.00002 13.1667H13.1667V8.99999C13.1667 8.76388 13.2467 8.5661 13.4067 8.40666C13.5667 8.24722 13.7645 8.16721 14 8.16666C14.2356 8.1661 14.4336 8.2461 14.5942 8.40666C14.7547 8.56721 14.8345 8.76499 14.8334 8.99999V13.1667H19C19.2361 13.1667 19.4342 13.2467 19.5942 13.4067C19.7542 13.5667 19.8339 13.7644 19.8334 14C19.8328 14.2355 19.7528 14.4336 19.5934 14.5942C19.4339 14.7547 19.2361 14.8344 19 14.8333H14.8334V19C14.8334 19.2361 14.7534 19.4342 14.5934 19.5942C14.4334 19.7542 14.2356 19.8339 14 19.8333C13.7645 19.8328 13.5667 19.7528 13.4067 19.5933C13.2467 19.4339 13.1667 19.2361 13.1667 19V14.8333Z" fill="white"/>
</svg>
