<svg width="22" height="20" viewBox="0 0 22 20" fill="none" xmlns="http://www.w3.org/2000/svg">
<path d="M1.793 11.6851C1.264 10.7351 1 10.2591 1 9.74013C1 9.22113 1.264 8.74613 1.793 7.79613L3.141 5.37013L4.567 2.98913C5.126 2.05613 5.405 1.58913 5.854 1.32913C6.304 1.07013 6.847 1.06213 7.934 1.04413L10.711 1.00013L13.486 1.04413C14.574 1.06213 15.117 1.07013 15.566 1.33013C16.015 1.59013 16.296 2.05613 16.854 2.98913L18.281 5.37013L19.631 7.79613C20.159 8.74613 20.423 9.22113 20.423 9.74013C20.423 10.2591 20.159 10.7341 19.63 11.6841L18.281 14.1101L16.855 16.4911C16.296 17.4241 16.017 17.8911 15.568 18.1511C15.118 18.4101 14.575 18.4181 13.488 18.4361L10.711 18.4801L7.936 18.4361C6.848 18.4181 6.305 18.4101 5.856 18.1501C5.407 17.8901 5.126 17.4241 4.568 16.4911L3.141 14.1101L1.793 11.6851Z" stroke="#3C3A45" stroke-width="2"/>
<path d="M10.7109 12.7401C12.3678 12.7401 13.7109 11.397 13.7109 9.74013C13.7109 8.08327 12.3678 6.74013 10.7109 6.74013C9.05408 6.74013 7.71094 8.08327 7.71094 9.74013C7.71094 11.397 9.05408 12.7401 10.7109 12.7401Z" stroke="#3C3A45" stroke-width="2"/>
</svg>
