<svg width="23" height="23" viewBox="0 0 23 23" fill="none" xmlns="http://www.w3.org/2000/svg">
<path d="M17.0529 19.0595C17.0529 17.4629 16.4186 15.9318 15.2897 14.8028C14.1607 13.6739 12.6296 13.0397 11.033 13.0397C9.43646 13.0397 7.90529 13.6739 6.77635 14.8028C5.64741 15.9318 5.01318 17.4629 5.01318 19.0595" stroke="#3C3A45" stroke-width="2" stroke-linecap="round" stroke-linejoin="round"/>
<path d="M11.033 13.0397C13.2494 13.0397 15.0462 11.2429 15.0462 9.02644C15.0462 6.81 13.2494 5.01321 11.033 5.01321C8.81656 5.01321 7.01978 6.81 7.01978 9.02644C7.01978 11.2429 8.81656 13.0397 11.033 13.0397Z" stroke="#3C3A45" stroke-width="2" stroke-linecap="round" stroke-linejoin="round"/>
<path d="M11.0331 21.0661C16.5742 21.0661 21.0661 16.5742 21.0661 11.0331C21.0661 5.49195 16.5742 1 11.0331 1C5.49195 1 1 5.49195 1 11.0331C1 16.5742 5.49195 21.0661 11.0331 21.0661Z" stroke="#3C3A45" stroke-width="2" stroke-linecap="round" stroke-linejoin="round"/>
</svg>
